<svg xmlns="http://www.w3.org/2000/svg" xmlns:svg="http://www.w3.org/2000/svg" id="svg849" version="1.1" viewBox="0 0 74.9 83.9"><metadata id="metadata853"/><defs id="defs837"><style id="style835"/></defs><path style="fill:#00e599" id="path839" d="M 37.697266 -0.0234375 A 8.4 8.4 0 0 0 33.300781 1.0996094 L 4.1992188 17.900391 A 8.4 8.4 0 0 0 0 25.199219 L 0 58.699219 A 8.4 8.4 0 0 0 4.1992188 66 L 33.300781 82.800781 A 8.4 8.4 0 0 0 41.699219 82.800781 L 70.699219 66 A 8.4 8.4 0 0 0 74.900391 58.699219 L 74.900391 25.199219 A 8.4 8.4 0 0 0 70.699219 17.900391 L 41.699219 1.0996094 A 8.4 8.4 0 0 0 37.697266 -0.0234375 z M 31.839844 17.083984 L 57.757812 17.083984 L 57.757812 24.775391 L 42.480469 24.775391 L 40.953125 39.894531 C 40.707285 42.528545 40.583984 45.162865 40.583984 47.796875 C 40.583984 52.819058 41.163299 55.876118 42.322266 56.964844 C 43.516352 58.018449 44.86874 58.544922 46.378906 58.544922 C 49.750446 58.544922 51.752612 56.419464 52.384766 52.169922 L 54.333984 52.169922 C 53.175018 61.933331 49.294006 66.814453 42.691406 66.814453 C 35.77274 66.814453 32.314453 62.847313 32.314453 54.910156 C 32.314453 50.906458 32.70001 45.917695 33.472656 39.947266 L 35.421875 24.775391 L 30.207031 24.775391 C 27.327171 24.775391 25.078411 25.268587 23.462891 26.251953 C 21.882477 27.200194 20.408756 29.131898 19.039062 32.046875 L 17.142578 32.046875 C 18.266425 28.183657 19.599245 25.126597 21.144531 22.878906 C 22.689825 20.596096 24.165513 19.069522 25.570312 18.296875 C 26.975119 17.489113 29.06535 17.083984 31.839844 17.083984 z"/><g id="layer3" style="display:none" transform="translate(314.05165,-75.059854)"><text id="text3393" x="225" y="210" style="font-style:normal;font-weight:400;line-height:0%;font-family:Universalia;-inkscape-font-specification:Universalia;text-align:center;letter-spacing:0;word-spacing:0;text-anchor:middle;display:inline;fill:#000;fill-opacity:1;stroke:none" xml:space="preserve"><tspan style="font-style:normal;font-variant:normal;font-weight:400;font-stretch:normal;font-size:180px;line-height:1.25;font-family:Universalia;-inkscape-font-specification:Universalia;text-align:center;letter-spacing:0;word-spacing:-70px;text-anchor:middle" id="tspan3395" x="225" y="210">Τ <tspan style="font-style:normal;font-variant:normal;font-weight:400;font-stretch:normal;font-family:'Times New Roman';-inkscape-font-specification:'Times New Roman, '" id="tspan86">τ</tspan></tspan></text></g></svg>